<svg width="836" height="836" viewBox="0 0 836 836" fill="none" xmlns="http://www.w3.org/2000/svg">
<circle cx="418" cy="418" r="418" fill="#F7FFF9"/>
<circle cx="418" cy="418" r="335.213" fill="#F1FAF3"/>
<circle cx="418" cy="439.806" r="251.317" fill="#E6F5EA"/>
<rect x="711" y="202" width="70" height="70" rx="35" fill="white"/>
<path d="M746 227.126C740.206 224.658 736.887 224.494 731.958 226.517C731.1 226.869 730.562 227.72 730.562 228.647V243.218C730.562 244.937 732.332 246.069 733.976 245.563C738.111 244.292 741.227 244.736 746 246.875C751.282 249.307 754.561 249.543 759.981 247.465C760.87 247.124 761.438 246.256 761.438 245.304V230.792C761.438 229.07 759.664 227.939 758.018 228.445C753.937 229.701 750.815 229.269 746 227.126Z" fill="#043B56" stroke="#043B56" stroke-width="2.37503"/>
<circle cx="746" cy="237" r="4.75006" fill="#B4E7C3"/>
<path d="M735.313 229.877C737.01 229.104 738.033 228.989 740.063 229.877" stroke="#B4E7C3" stroke-width="2.37503" stroke-linecap="round"/>
<path d="M751.938 243.502C753.635 244.274 754.659 244.39 756.688 243.502" stroke="#B4E7C3" stroke-width="2.37503" stroke-linecap="round"/>
<rect x="69" y="202" width="70" height="70" rx="35" fill="white"/>
<path fill-rule="evenodd" clip-rule="evenodd" d="M96.0833 222.75C94.3344 222.75 92.9166 224.168 92.9166 225.917V249.667C92.9166 251.416 94.3344 252.833 96.0833 252.833H111.917C113.666 252.833 115.083 251.416 115.083 249.667V225.917C115.083 224.168 113.666 222.75 111.917 222.75H96.0833ZM99.25 225.917C97.5011 225.917 96.0833 227.334 96.0833 229.083V243.333C96.0833 245.082 97.5011 246.5 99.25 246.5H108.75C110.499 246.5 111.917 245.082 111.917 243.333V229.083C111.917 227.334 110.499 225.917 108.75 225.917H99.25Z" fill="#043B56"/>
<rect x="100.833" y="248.083" width="6.33333" height="3.16667" rx="1.58333" fill="#B4E7C3"/>
<rect x="241" y="42" width="70" height="70" rx="35" fill="white"/>
<circle cx="265.708" cy="81.75" r="2.375" fill="white"/>
<rect x="260.167" y="65.9167" width="31.6667" height="22.1667" rx="3.16667" fill="#043B56"/>
<rect x="258.979" y="71.0625" width="34.0417" height="7.125" fill="#B4E7C3" stroke="white" stroke-width="2.375"/>
<rect x="511" y="42" width="70" height="70" rx="35" fill="white"/>
<path fill-rule="evenodd" clip-rule="evenodd" d="M535.763 73.9376C536.139 73.5616 536.244 73.0172 536.078 72.5472C536.013 72.365 535.908 72.194 535.763 72.0483L534.48 70.766L545.506 70.7657L545.506 70.7657L534.48 70.7659L535.763 72.0483C536.284 72.57 536.284 73.4159 535.763 73.9376C535.64 74.06 535.5 74.1537 535.35 74.2186C535.5 74.1537 535.64 74.06 535.763 73.9376ZM535.091 64.5592C535.337 64.6103 535.572 64.7315 535.763 64.9226C536.284 65.4443 536.284 66.2902 535.763 66.8119L534.481 68.0941H534.481L535.763 66.8119C535.909 66.6661 536.014 66.495 536.078 66.3128C536.244 65.8428 536.139 65.2985 535.763 64.9226C535.572 64.7314 535.337 64.6103 535.091 64.5592ZM546.407 68.444C546.674 68.6882 546.842 69.0394 546.842 69.4297C546.842 69.8409 546.656 70.2088 546.364 70.4539C546.656 70.2088 546.842 69.841 546.842 69.4297C546.842 69.0394 546.674 68.6882 546.407 68.444ZM537.022 63.663C537.745 64.3853 538.038 65.3739 537.903 66.3127L545.506 66.3125C547.227 66.3125 548.623 67.7081 548.623 69.4297C548.623 71.1513 547.227 72.5469 545.506 72.547L537.903 72.5471C538.038 73.4861 537.745 74.4748 537.022 75.1971C535.805 76.4145 533.831 76.4145 532.614 75.1971L531.701 74.2838V84.1252C531.701 88.0602 534.891 91.2502 538.826 91.2502H553.076C554.469 91.2502 555.77 90.85 556.868 90.1583C556.467 90.0066 556.092 89.7696 555.77 89.4472C555.047 88.7248 554.753 87.7362 554.888 86.7972L547.286 86.797C545.565 86.797 544.169 85.4013 544.169 83.6798C544.169 81.9582 545.565 80.5626 547.286 80.5626L554.888 80.5628C554.754 79.6239 555.047 78.6354 555.77 77.9131C556.987 76.6958 558.961 76.6958 560.178 77.9131L560.201 77.9359V69.8751C560.201 65.94 557.011 62.75 553.076 62.75H538.826C537.971 62.75 537.152 62.9004 536.393 63.1762C536.618 63.3079 536.829 63.4702 537.022 63.663ZM556.714 86.7973C556.548 87.2673 556.653 87.8117 557.029 88.1877C557.266 88.4245 557.569 88.5538 557.879 88.5756C557.569 88.5538 557.266 88.4244 557.029 88.1877C556.507 87.6659 556.507 86.8201 557.029 86.2983L557.029 86.2984C556.883 86.4441 556.778 86.6151 556.714 86.7973ZM547.286 85.0158L558.311 85.016L558.311 85.016L547.286 85.0158C546.548 85.0157 545.95 84.4176 545.95 83.6798C545.95 83.3421 546.076 83.0336 546.282 82.7984C546.076 83.0336 545.95 83.342 545.95 83.6798C545.95 84.4176 546.548 85.0158 547.286 85.0158ZM557.029 79.1726C557.096 79.1053 557.169 79.0467 557.246 78.9967C557.169 79.0467 557.096 79.1053 557.029 79.1727C556.653 79.5486 556.548 80.0928 556.714 80.5628C556.778 80.7451 556.883 80.9162 557.029 81.062L558.311 82.3441H558.311L557.029 81.0619C556.507 80.5402 556.507 79.6944 557.029 79.1726Z" fill="#043B56"/>
<path fill-rule="evenodd" clip-rule="evenodd" d="M557.029 79.1727C556.507 79.6944 556.507 80.5403 557.029 81.062L558.311 82.3441L547.286 82.3439C546.548 82.3439 545.95 82.942 545.95 83.6798C545.95 84.4176 546.548 85.0158 547.286 85.0158L558.311 85.016L557.029 86.2984C556.507 86.8201 556.507 87.666 557.029 88.1877C557.551 88.7094 558.397 88.7094 558.918 88.1877L562.481 84.6248C563.003 84.1031 563.003 83.2572 562.481 82.7355L558.918 79.1727C558.397 78.6509 557.551 78.6509 557.029 79.1727Z" fill="#B4E7C3"/>
<path fill-rule="evenodd" clip-rule="evenodd" d="M535.763 64.9226C536.284 65.4443 536.284 66.2902 535.763 66.8119L534.481 68.0941L545.506 68.0938C546.243 68.0938 546.842 68.6919 546.842 69.4297C546.842 70.1675 546.244 70.7657 545.506 70.7657L534.48 70.7659L535.763 72.0483C536.284 72.57 536.284 73.4159 535.763 73.9376C535.241 74.4593 534.395 74.4593 533.873 73.9376L530.311 70.3747C529.789 69.853 529.789 69.0071 530.311 68.4854L533.873 64.9226C534.395 64.4009 535.241 64.4009 535.763 64.9226Z" fill="#B4E7C3"/>
<path d="M430.986 200.839C426.664 208.311 418.585 213.338 409.332 213.338C395.525 213.338 384.333 202.146 384.333 188.339C384.333 174.533 395.525 163.341 409.332 163.341C423.138 163.341 434.33 174.533 434.33 188.339H442.663C442.663 169.931 427.74 155.008 409.332 155.008C390.923 155.008 376 169.931 376 188.339C376 206.748 390.923 221.671 409.332 221.671C423.32 221.671 435.296 213.054 440.24 200.839H430.986Z" fill="#043B56"/>
<path d="M465 198.971C457.51 190.617 442.818 195.514 435.904 196.09C425.533 196.666 420.06 193.786 416.315 192.345C418.329 195.552 423.517 202.037 432.159 203.58C440.225 205.021 452.901 197.819 465 198.971Z" fill="#3AB75D"/>
<path d="M411.994 183.127C417.755 185.72 419.484 187.16 428.126 187.16C433.895 187.16 447.139 183.703 452.901 190.617C438.497 189.176 437.633 192.345 428.99 192.345C418.331 192.057 414.586 186.296 411.994 183.127Z" fill="#3AB75D"/>
</svg>
