<svg width="396" height="238" viewBox="0 0 396 238" fill="none" xmlns="http://www.w3.org/2000/svg">
<path d="M277.002 57.3588C275.416 49.2033 275.53 43.4492 276.793 39.5278M277.002 57.3588L254.572 92.4264M277.002 57.3588C278.228 62.1565 279.804 67.7606 281.727 73.9467M281.757 33.3394C288.347 30.1037 298.999 34.777 306.126 39.5278C337.627 63.3025 393.854 142.234 392.903 189.308C392.903 197.877 394.092 205.95 388.148 211.347M281.757 33.3394C277.398 33.8172 265.115 39.2901 250.85 57.3588C250.626 58.4612 250.462 59.652 250.356 60.9251M281.757 33.3394C279.554 34.421 277.805 36.3863 276.793 39.5278M388.148 211.347C385.947 212.689 379.644 214.822 376.261 214.136M388.148 211.347C385.771 215.46 377.597 220.07 373.289 223.873M276.793 39.5278L250.85 73.9467M250.85 73.9467C251.55 79.4902 252.811 85.7208 254.572 92.4264M250.85 73.9467C250.227 69.0118 250.048 64.6215 250.356 60.9251M254.572 92.4264C255.232 94.939 255.963 97.5183 256.76 100.153M281.727 73.9467L259.44 108.474M281.727 73.9467C283.343 79.1456 285.204 84.7556 287.31 90.6433M259.44 108.474C261.023 113.121 262.79 117.894 264.725 122.739M259.44 108.474C258.478 105.65 257.583 102.872 256.76 100.153M287.31 90.6433L264.725 122.739M287.31 90.6433C288.89 95.0624 290.608 99.638 292.463 104.314M264.725 122.739C266.526 127.248 268.473 131.819 270.553 136.409M292.463 104.314L270.553 136.409M292.463 104.314C294.623 109.755 296.968 115.332 299.498 120.956M270.553 136.409C272.976 141.757 275.58 147.129 278.346 152.457M299.498 120.956L278.346 152.457M299.498 120.956C301.582 125.587 303.791 130.25 306.126 134.895M278.346 152.457C280.841 157.265 283.468 162.037 286.212 166.722M306.126 134.895L286.212 166.722M306.126 134.895C308.488 139.596 310.98 144.278 313.599 148.891M286.212 166.722C289.185 171.799 292.295 176.774 295.524 181.581M313.599 148.891L295.524 181.581M313.599 148.891C315.774 152.723 318.038 156.507 320.391 160.213M295.524 181.581C298.188 185.548 300.933 189.4 303.748 193.102M320.391 160.213L303.748 193.102M320.391 160.213C323.1 164.482 325.926 168.648 328.868 172.666M303.748 193.102C309.524 200.698 315.597 207.661 321.877 213.677M328.868 172.666L313.599 203.573M328.868 172.666C331.738 176.585 334.719 180.363 337.811 183.959M337.811 183.959L321.877 213.677M337.811 183.959C340.564 187.161 343.406 190.219 346.334 193.102M321.877 213.677C325.287 216.944 328.759 219.932 332.278 222.59M346.334 193.102L332.278 222.59M346.334 193.102C349.031 195.757 351.802 198.264 354.646 200.601M332.278 222.59C335.414 224.959 338.587 227.065 341.788 228.874M354.646 200.601C355.893 201.625 357.155 202.616 358.43 203.573C360.09 205.026 361.674 206.313 363.185 207.447M354.646 200.601L341.788 228.874M341.788 228.874C345.521 230.984 349.29 232.688 353.081 233.93M363.185 207.447L353.081 233.93M363.185 207.447C365.308 209.041 367.286 210.33 369.129 211.347M353.081 233.93C353.675 234.125 354.269 234.308 354.864 234.48C356.609 235.273 359.637 234.051 363.185 231.766M369.129 211.347L363.185 231.766M369.129 211.347C371.777 212.809 374.145 213.708 376.261 214.136M363.185 231.766C366.322 229.746 369.867 226.895 373.289 223.873M376.261 214.136L373.289 223.873M249.067 24.0744C248.139 20.1086 233.816 16.3322 224.103 13.3758C201.307 6.43687 167.4 3.23773 133.186 3.0128C130.017 2.99198 126.846 2.99663 123.68 3.02622C86.5285 3.37342 50.1956 7.15104 28.5572 13.3758C17.9209 16.3817 4.51679 20.1829 10.1326 25.6311M249.067 24.0744C249.787 27.1468 241.228 30.3328 224.103 33.3394C216.666 35.1908 207.553 36.7043 197.358 37.9053M249.067 24.0744L248.579 37.7448M7.75509 22.8857L6.56636 57.3588C7.53689 58.0719 8.73079 58.7647 10.1326 59.4361M250.356 60.9251L249.067 95.3983M249.067 95.3983C247.335 95.9489 245.55 96.4808 243.718 96.9943M249.067 95.3983L256.76 100.153M10.1326 59.4361V97.1814C11.5054 98.6458 14.1446 99.876 17.8593 100.897M10.1326 59.4361C14.2307 61.3991 20.1055 63.1791 27.369 64.7467M256.76 100.153V117.524M256.76 134.895C254.862 135.548 252.891 136.177 250.85 136.781M256.76 134.895L233.019 99.6711M256.76 134.895V117.524M17.8593 134.895V110.257M17.8593 134.895C15.3508 135.488 10.386 137.345 7.75509 140.483M17.8593 134.895C19.8387 136.903 24.3948 138.785 30.9609 140.483M17.8593 100.897V110.257M17.8593 100.897C22.9106 102.286 30.0139 103.582 38.6619 104.72M250.85 136.781V172.666C249.935 174.166 248.273 175.551 245.954 176.826M250.85 136.781C249.259 137.251 247.626 137.707 245.954 138.148M245.954 176.826C248.827 177.817 254.572 180.511 254.572 183.364C254.572 186.217 254.572 207.535 254.572 217.838C188.442 244.584 49.9549 235.074 3 217.838V184.553C3.59431 183.542 6.09056 181.051 11.3211 179.173M245.954 176.826C234.244 183.268 205.795 186.911 172.394 188.416M11.3211 179.173C9.1547 178.421 7.54579 177.637 6.56636 176.826C5.77387 167.118 4.66439 146.633 6.56636 142.353C6.86288 141.686 7.26918 141.063 7.75509 140.483M11.3211 179.173C14.295 180.207 18.3195 181.182 23.2084 182.089M10.1326 25.6311C12.4667 27.8956 18.0868 30.4446 28.5572 33.3394C31.7816 34.5421 36.4425 35.6326 42.2281 36.5977M10.1326 25.6311C14.8874 38.4648 24.9915 64.2552 27.369 64.7467M27.369 64.7467C31.8285 65.7091 36.8115 66.5914 42.2281 67.3867M24.9915 33.3394L42.2281 67.3867M42.2281 67.3867C51.7493 68.7847 62.6104 69.9139 74.3238 70.7372M42.2281 36.5977L51.738 60.9251M42.2281 36.5977C54.0634 38.5718 70.605 40.0207 89.1829 40.8299M57.0873 39.5278L74.3238 70.7372M74.3238 70.7372C90.9077 71.9028 109.2 72.4552 127.817 72.2885M70.1633 36.5977L85.6167 67.3867M89.1829 40.8299L105.231 70.7372M89.1829 40.8299C99.5966 41.2835 110.65 41.5361 121.873 41.5676M108.203 44.2829L127.817 72.2885M127.817 72.2885C134.335 72.2301 140.893 72.0836 147.431 71.8444M121.873 41.5676L147.431 71.8444M121.873 41.5676C128.582 41.5865 135.352 41.5263 142.081 41.3828M147.431 71.8444C153.808 71.6112 160.166 71.2898 166.451 70.876M142.081 41.3828L166.451 70.876M142.081 41.3828C161.67 40.965 180.922 39.8413 197.358 37.9053M166.451 70.876C172.478 70.4791 178.438 69.9972 184.281 69.4266M159.318 38.3392L184.281 69.4266M184.281 69.4266C190.998 68.7708 197.561 67.9978 203.896 67.102M180.715 36.5977L203.896 67.102M203.896 67.102C208.167 66.498 212.335 65.8381 216.377 65.1206M197.358 37.9053L216.377 65.1206M216.377 65.1206C223.291 63.8934 229.835 62.4978 235.897 60.9251M212.811 33.3394L235.897 60.9251M235.897 60.9251C240.14 59.8241 244.147 58.6364 247.879 57.3589L248.091 51.4152M229.453 30.6124L248.091 51.4152M248.091 51.4152L248.579 37.7448M239.557 27.6406L248.579 37.7448M17.8593 110.257C20.2367 112.239 24.9915 116.914 24.9915 119.767C24.9915 123.333 31.5295 135.846 33.907 138.787M24.9915 104.314L45.1999 142.353M38.6619 104.72L51.738 138.787M38.6619 104.72C81.6714 110.379 162.89 112.152 219.943 102.249M51.738 107.88L65.4084 146.035M65.4084 146.035C56.302 145.089 48.0978 143.961 41.1332 142.684M65.4084 146.035C75.203 147.051 86.0413 147.856 97.504 148.406M61.8422 112.635L79.0787 142.353M76.1069 114.418L99.8815 146.035M90.3717 113.824L115.335 149.039M115.335 149.039C112.465 148.972 109.619 148.889 106.802 148.79M115.335 149.039C117.11 149.081 118.893 149.116 120.684 149.146M99.8815 114.418L126.628 147.108M109.391 111.446L137.921 147.108M126.628 114.418L152.186 149.008M152.186 149.008C156.154 148.907 160.121 148.773 164.073 148.605M152.186 149.008C141.604 149.278 131.017 149.315 120.684 149.146M139.704 114.418L164.073 148.605M164.073 148.605C168.657 148.41 173.221 148.17 177.743 147.881M150.403 112.635L177.743 147.881M177.743 147.881C182.148 147.599 186.513 147.272 190.82 146.898M166.451 112.635L188.442 146.035M177.743 108.474L203.896 142.353M194.386 107.88L219.943 143.441M219.943 143.441C210.732 144.874 200.938 146.018 190.82 146.898M219.943 143.441C223.189 142.937 226.363 142.396 229.453 141.818M207.462 104.72L231.236 141.478M231.236 141.478C236.406 140.477 241.33 139.369 245.954 138.148M231.236 141.478C230.645 141.593 230.051 141.706 229.453 141.818M219.943 102.249L245.954 138.148M219.943 102.249C224.464 101.464 228.833 100.606 233.019 99.6711M233.019 99.6711C236.737 98.8406 240.31 97.9492 243.718 96.9943M243.718 96.9943L256.76 117.524M7.75509 140.483C12.3118 154.245 21.7819 181.832 23.2084 182.089M23.2084 182.089C30.0196 183.351 38.5085 184.481 48.1718 185.449M17.8593 136.409L38.6619 183.364M30.9609 140.483L48.1718 185.449M30.9609 140.483C33.9523 141.257 37.361 141.992 41.1332 142.684M48.1718 185.449C51.5978 185.792 55.1715 186.115 58.8704 186.417M41.1332 142.684L58.8704 186.417M58.8704 186.417C64.7925 186.899 71.0354 187.327 77.5072 187.693M51.738 149.039L77.5072 187.693M77.5072 187.693C82.6566 187.985 87.9508 188.239 93.3435 188.452M67.7858 147.881L93.3435 188.452M93.3435 188.452C110.864 189.143 129.423 189.403 147.431 189.142M85.6167 149.039L105.231 187.693M97.504 148.406L115.335 187.693M97.504 148.406C100.561 148.552 103.663 148.681 106.802 148.79M106.802 148.79L130.788 187.693M120.684 149.146L147.431 189.142M147.431 189.142C155.931 189.019 164.308 188.78 172.394 188.416M139.704 150.674L158.129 187.693M153.969 150.674L172.394 188.416M166.451 150.674L188.442 185.449M177.743 150.674L201.518 181.581M190.82 146.898L209.245 183.364M203.896 147.108L227.076 181.581M216.377 146.035L238.963 176.826M229.453 141.818L248.091 172.666M240.746 141.478L249.067 152.457" stroke="#2C9A4B" stroke-width="4.75492" stroke-linecap="round"/>
<path d="M11.9163 66.2746L22.0205 98.9647M19.643 62.7084C19.643 64.4915 29.7472 93.6154 35.0965 98.9647M31.5303 66.2746L47.5782 104.908M41.6346 68.652L57.6824 104.908M52.3331 70.4351L81.457 113.229M68.9754 70.4351L91.5612 107.286M85.0232 72.8126L103.449 104.908M98.0993 72.8126L114.147 104.908M108.203 75.19L127.818 107.286M120.685 72.8126L146.243 107.286M140.299 72.8126L159.319 107.286M152.781 72.8126L170.017 104.908M164.668 72.8126L185.471 104.908M178.933 72.8126L201.519 104.908M190.82 70.4351L208.057 102.531M204.491 68.652L224.699 98.9647M216.378 66.2746L237.181 98.9647M228.265 66.2746L247.285 95.3985M238.964 62.7084L249.068 79.3506M8.94446 192.874L24.9923 223.187M13.6994 182.176L37.474 226.159M28.5585 185.148L44.6064 223.187M41.6346 188.714L55.8993 226.159M52.3331 192.874L72.5415 226.159M66.5979 194.657L91.5612 229.725M81.457 194.657L105.232 229.725M91.5612 196.441L117.713 229.725M101.665 194.657L130.195 229.725M117.713 196.441L145.054 230.914M131.978 196.441L155.753 230.914M145.054 196.441L170.017 229.725M161.696 196.441L185.471 230.914M173.584 198.818L199.141 230.914M182.499 194.657L208.057 229.725M194.981 192.874L219.944 226.159M204.491 188.714L230.048 223.187M214.001 185.148L244.313 223.187M227.077 185.148L250.851 216.649M240.747 185.148L250.851 204.167" stroke="#6A0202" stroke-width="4.75492" stroke-linecap="round"/>
<path d="M311.926 116.798L308.199 110.212L321.218 102.845L325.329 110.109L333.878 146.68L334.608 147.97L343.809 142.763L347.535 149.348L334.516 156.716L330.444 149.52L321.865 112.965L321.097 111.607L311.926 116.798Z" fill="#6A0202"/>
<path d="M356.061 144.524L352.85 146.341L326.532 99.8372L329.744 98.0198L341.615 118.997L344.259 116.784L336.745 94.0575L340.42 91.9782L348.746 118.099L366.939 138.367L363.207 140.48L348.024 123.437L345.342 125.583L356.061 144.524Z" fill="#6A0202"/>
<path d="M110.548 33.2967L104.906 33.355L104.81 23.9841L111.032 23.9197L137.969 30.2641L139.074 30.2527L139.006 23.6306L144.647 23.5722L144.744 32.9431L138.579 33.0069L111.643 26.6834L110.479 26.6954L110.548 33.2967Z" fill="#6A0202"/>
<path d="M144.584 17.4358L144.607 19.7472L104.77 20.1591L104.746 17.8476L122.717 17.6618L122.229 15.5426L104.694 12.8081L104.667 10.1635L124.709 13.4759L144.503 9.60584L144.53 12.2922L127.929 15.4836L128.358 17.6035L144.584 17.4358Z" fill="#6A0202"/>
</svg>
