<svg width="38" height="38" viewBox="0 0 38 38" fill="none" xmlns="http://www.w3.org/2000/svg">
<g clip-path="url(#clip0_304_8110)">
<circle cx="19" cy="19" r="9.5" fill="#155728"/>
<mask id="path-2-outside-1_304_8110" maskUnits="userSpaceOnUse" x="-4.24264" y="-3.93442" width="28.2843" height="28.2843" fill="black">
<rect fill="white" x="-4.24264" y="-3.93442" width="28.2843" height="28.2843"/>
<path fill-rule="evenodd" clip-rule="evenodd" d="M5.63311 4.52427C5.22759 4.52404 4.82199 4.67862 4.51259 4.98802C4.20103 5.29958 4.04646 5.70867 4.04887 6.11701L4.04903 12.8938C4.04905 13.7683 4.75795 14.4772 5.6324 14.4771C6.50685 14.4771 7.21571 13.7682 7.21569 12.8938L7.21563 9.93023L12.6562 15.3708C13.2745 15.9891 14.277 15.9891 14.8954 15.3708C15.5137 14.7525 15.5137 13.75 14.8954 13.1316L9.45477 7.69103L12.4185 7.69111C13.293 7.69113 14.0019 6.98226 14.0019 6.10781C14.0019 5.23336 13.293 4.52446 12.4186 4.52444L5.63311 4.52427Z"/>
</mask>
<path fill-rule="evenodd" clip-rule="evenodd" d="M5.63311 4.52427C5.22759 4.52404 4.82199 4.67862 4.51259 4.98802C4.20103 5.29958 4.04646 5.70867 4.04887 6.11701L4.04903 12.8938C4.04905 13.7683 4.75795 14.4772 5.6324 14.4771C6.50685 14.4771 7.21571 13.7682 7.21569 12.8938L7.21563 9.93023L12.6562 15.3708C13.2745 15.9891 14.277 15.9891 14.8954 15.3708C15.5137 14.7525 15.5137 13.75 14.8954 13.1316L9.45477 7.69103L12.4185 7.69111C13.293 7.69113 14.0019 6.98226 14.0019 6.10781C14.0019 5.23336 13.293 4.52446 12.4186 4.52444L5.63311 4.52427Z" fill="#B4E7C3"/>
<path d="M5.63311 4.52427L5.63172 6.89927H5.63305L5.63311 4.52427ZM4.04887 6.11701L6.42391 6.11696L6.42383 6.10299L4.04887 6.11701ZM4.04903 12.8938L6.42403 12.8938L6.42403 12.8938L4.04903 12.8938ZM5.6324 14.4771L5.63245 16.8521L5.63245 16.8521L5.6324 14.4771ZM7.21569 12.8938L4.84069 12.8938L4.84069 12.8938L7.21569 12.8938ZM7.21563 9.93023L8.895 8.25085L4.84049 4.19634L4.84063 9.93028L7.21563 9.93023ZM12.6562 15.3708L10.9768 17.0502L10.9768 17.0502L12.6562 15.3708ZM14.8954 13.1316L13.216 14.811L13.216 14.811L14.8954 13.1316ZM9.45477 7.69103L9.45483 5.31603L3.72088 5.31589L7.7754 9.37041L9.45477 7.69103ZM12.4185 7.69111L12.4185 10.0661L12.4185 7.69111ZM14.0019 6.10781L11.6269 6.10775L11.6269 6.10775L14.0019 6.10781ZM12.4186 4.52444L12.4185 6.89944L12.4185 6.89944L12.4186 4.52444ZM6.19197 6.6674C6.03773 6.82164 5.83079 6.89939 5.63172 6.89927L5.63449 2.14927C4.62438 2.14868 3.60626 2.5356 2.83321 3.30864L6.19197 6.6674ZM6.42383 6.10299C6.42501 6.30332 6.34735 6.51202 6.19197 6.6674L2.83321 3.30864C2.05472 4.08714 1.66791 5.11402 1.67391 6.13103L6.42383 6.10299ZM6.42403 12.8938L6.42387 6.11695L1.67387 6.11707L1.67403 12.8939L6.42403 12.8938ZM5.63234 12.1021C6.06957 12.1021 6.42402 12.4566 6.42403 12.8938L1.67403 12.8939C1.67408 15.08 3.44632 16.8522 5.63245 16.8521L5.63234 12.1021ZM4.84069 12.8938C4.84068 12.4566 5.19512 12.1021 5.63234 12.1021L5.63245 16.8521C7.81858 16.8521 9.59074 15.0798 9.59069 12.8937L4.84069 12.8938ZM4.84063 9.93028L4.84069 12.8938L9.59069 12.8937L9.59063 9.93017L4.84063 9.93028ZM14.3356 13.6914L8.895 8.25085L5.53625 11.6096L10.9768 17.0502L14.3356 13.6914ZM13.216 13.6914C13.5252 13.3823 14.0264 13.3823 14.3356 13.6914L10.9768 17.0502C12.5226 18.596 15.0289 18.596 16.5748 17.0502L13.216 13.6914ZM13.216 14.811C12.9068 14.5018 12.9068 14.0006 13.216 13.6914L16.5748 17.0502C18.1206 15.5044 18.1206 12.9981 16.5748 11.4523L13.216 14.811ZM7.7754 9.37041L13.216 14.811L16.5748 11.4523L11.1342 6.01165L7.7754 9.37041ZM12.4186 5.3161L9.45483 5.31603L9.45472 10.066L12.4185 10.0661L12.4186 5.3161ZM11.6269 6.10775C11.6269 5.67053 11.9813 5.31609 12.4186 5.31611L12.4185 10.0661C14.6046 10.0662 16.3768 8.294 16.3769 6.10787L11.6269 6.10775ZM12.4185 6.89944C11.9813 6.89943 11.6269 6.54498 11.6269 6.10775L16.3769 6.10787C16.3769 3.92174 14.6048 2.14949 12.4186 2.14944L12.4185 6.89944ZM5.63305 6.89927L12.4185 6.89944L12.4186 2.14944L5.63316 2.14927L5.63305 6.89927Z" fill="white" mask="url(#path-2-outside-1_304_8110)"/>
<mask id="path-4-outside-2_304_8110" maskUnits="userSpaceOnUse" x="13.9591" y="13.4255" width="28.2843" height="28.2843" fill="black">
<rect fill="white" x="13.9591" y="13.4255" width="28.2843" height="28.2843"/>
<path fill-rule="evenodd" clip-rule="evenodd" d="M32.3675 33.2511C32.7731 33.2514 33.1787 33.0968 33.4881 32.7874C33.7997 32.4758 33.9543 32.0667 33.9519 31.6584L33.9517 24.8816C33.9517 24.0071 33.2428 23.2982 32.3683 23.2983C31.4939 23.2983 30.785 24.0072 30.785 24.8816L30.7851 27.8452L25.3445 22.4046C24.7262 21.7863 23.7237 21.7863 23.1054 22.4046C22.487 23.0229 22.487 24.0254 23.1054 24.6438L28.546 30.0844L25.5822 30.0843C24.7078 30.0843 23.9989 30.7931 23.9988 31.6676C23.9988 32.542 24.7077 33.2509 25.5821 33.251L32.3675 33.2511Z"/>
</mask>
<path fill-rule="evenodd" clip-rule="evenodd" d="M32.3675 33.2511C32.7731 33.2514 33.1787 33.0968 33.4881 32.7874C33.7997 32.4758 33.9543 32.0667 33.9519 31.6584L33.9517 24.8816C33.9517 24.0071 33.2428 23.2982 32.3683 23.2983C31.4939 23.2983 30.785 24.0072 30.785 24.8816L30.7851 27.8452L25.3445 22.4046C24.7262 21.7863 23.7237 21.7863 23.1054 22.4046C22.487 23.0229 22.487 24.0254 23.1054 24.6438L28.546 30.0844L25.5822 30.0843C24.7078 30.0843 23.9989 30.7931 23.9988 31.6676C23.9988 32.542 24.7077 33.2509 25.5821 33.251L32.3675 33.2511Z" fill="#B4E7C3"/>
<path d="M32.3675 33.2511L32.3691 30.8761L32.3675 30.8761L32.3675 33.2511ZM33.9519 31.6584L31.5768 31.6584L31.5769 31.6724L33.9519 31.6584ZM33.9517 24.8816L31.5767 24.8816L31.5767 24.8816L33.9517 24.8816ZM32.3683 23.2983L32.3684 25.6733L32.3684 25.6733L32.3683 23.2983ZM30.785 24.8816L33.16 24.8816V24.8816L30.785 24.8816ZM30.7851 27.8452L29.1057 29.5245L33.1602 33.5791L33.1601 27.8451L30.7851 27.8452ZM25.3445 22.4046L27.0239 20.7252L25.3445 22.4046ZM23.1054 24.6438L24.7847 22.9644L23.1054 24.6438ZM28.546 30.0844L28.5459 32.4594L34.2799 32.4595L30.2253 28.405L28.546 30.0844ZM25.5822 30.0843L25.5822 32.4593L25.5822 32.4593L25.5822 30.0843ZM23.9988 31.6676L26.3738 31.6676L26.3738 31.6676L23.9988 31.6676ZM25.5821 33.251L25.5822 30.876L25.5821 33.251ZM31.8088 31.108C31.963 30.9537 32.17 30.876 32.3691 30.8761L32.3659 35.6261C33.3761 35.6268 34.3944 35.2399 35.1675 34.4667L31.8088 31.108ZM31.5769 31.6724C31.5757 31.4721 31.6534 31.2634 31.8088 31.108L35.1675 34.4667C35.946 33.6882 36.3328 32.6614 36.3268 31.6443L31.5769 31.6724ZM31.5767 24.8816L31.5769 31.6584L36.3269 31.6583L36.3267 24.8815L31.5767 24.8816ZM32.3684 25.6733C31.9312 25.6733 31.5767 25.3188 31.5767 24.8816L36.3267 24.8815C36.3267 22.6954 34.5544 20.9232 32.3683 20.9233L32.3684 25.6733ZM33.16 24.8816C33.16 25.3188 32.8056 25.6732 32.3684 25.6733L32.3683 20.9233C30.1822 20.9233 28.41 22.6956 28.41 24.8817L33.16 24.8816ZM33.1601 27.8451L33.16 24.8816L28.41 24.8817L28.4101 27.8452L33.1601 27.8451ZM23.6652 24.084L29.1057 29.5245L32.4645 26.1658L27.0239 20.7252L23.6652 24.084ZM24.7847 24.084C24.4756 24.3931 23.9743 24.3931 23.6652 24.084L27.0239 20.7252C25.4781 19.1794 22.9718 19.1794 21.426 20.7252L24.7847 24.084ZM24.7847 22.9644C25.0939 23.2735 25.0939 23.7748 24.7847 24.084L21.426 20.7252C19.8802 22.271 19.8802 24.7773 21.426 26.3231L24.7847 22.9644ZM30.2253 28.405L24.7847 22.9644L21.426 26.3231L26.8666 31.7637L30.2253 28.405ZM25.5822 32.4593L28.5459 32.4594L28.546 27.7094L25.5823 27.7093L25.5822 32.4593ZM26.3738 31.6676C26.3738 32.1049 26.0194 32.4593 25.5822 32.4593L25.5823 27.7093C23.3961 27.7092 21.6239 29.4814 21.6238 31.6675L26.3738 31.6676ZM25.5822 30.876C26.0194 30.876 26.3739 31.2304 26.3738 31.6676L21.6238 31.6675C21.6238 33.8536 23.396 35.6259 25.5821 35.626L25.5822 30.876ZM32.3675 30.8761L25.5822 30.876L25.5821 35.626L32.3674 35.6261L32.3675 30.8761Z" fill="white" mask="url(#path-4-outside-2_304_8110)"/>
<mask id="path-6-outside-3_304_8110" maskUnits="userSpaceOnUse" x="-4.24264" y="13.4258" width="28.2843" height="28.2843" fill="black">
<rect fill="white" x="-4.24264" y="13.4258" width="28.2843" height="28.2843"/>
<path fill-rule="evenodd" clip-rule="evenodd" d="M5.63311 33.2514C5.22759 33.2516 4.82199 33.097 4.51259 32.7876C4.20103 32.4761 4.04646 32.067 4.04887 31.6586L4.04903 24.8818C4.04905 24.0073 4.75795 23.2985 5.6324 23.2985C6.50685 23.2985 7.21571 24.0074 7.21569 24.8819L7.21563 27.8454L12.6562 22.4048C13.2745 21.7865 14.277 21.7865 14.8954 22.4048C15.5137 23.0232 15.5137 24.0257 14.8954 24.644L9.45477 30.0846L12.4185 30.0845C13.293 30.0845 14.0019 30.7934 14.0019 31.6678C14.0019 32.5423 13.293 33.2512 12.4186 33.2512L5.63311 33.2514Z"/>
</mask>
<path fill-rule="evenodd" clip-rule="evenodd" d="M5.63311 33.2514C5.22759 33.2516 4.82199 33.097 4.51259 32.7876C4.20103 32.4761 4.04646 32.067 4.04887 31.6586L4.04903 24.8818C4.04905 24.0073 4.75795 23.2985 5.6324 23.2985C6.50685 23.2985 7.21571 24.0074 7.21569 24.8819L7.21563 27.8454L12.6562 22.4048C13.2745 21.7865 14.277 21.7865 14.8954 22.4048C15.5137 23.0232 15.5137 24.0257 14.8954 24.644L9.45477 30.0846L12.4185 30.0845C13.293 30.0845 14.0019 30.7934 14.0019 31.6678C14.0019 32.5423 13.293 33.2512 12.4186 33.2512L5.63311 33.2514Z" fill="#B4E7C3"/>
<path d="M5.63311 33.2514L5.63172 30.8764H5.63305L5.63311 33.2514ZM4.04887 31.6586L6.42391 31.6587L6.42383 31.6726L4.04887 31.6586ZM4.04903 24.8818L6.42403 24.8819L6.42403 24.8819L4.04903 24.8818ZM5.6324 23.2985L5.63245 20.9235L5.63245 20.9235L5.6324 23.2985ZM7.21569 24.8819L4.84069 24.8818L4.84069 24.8818L7.21569 24.8819ZM7.21563 27.8454L8.895 29.5248L4.84049 33.5793L4.84063 27.8454L7.21563 27.8454ZM12.6562 22.4048L10.9768 20.7255L10.9768 20.7255L12.6562 22.4048ZM14.8954 24.644L13.216 22.9646L13.216 22.9646L14.8954 24.644ZM9.45477 30.0846L9.45483 32.4596L3.72088 32.4597L7.7754 28.4052L9.45477 30.0846ZM12.4185 30.0845L12.4185 27.7095L12.4185 30.0845ZM14.0019 31.6678L11.6269 31.6679L11.6269 31.6679L14.0019 31.6678ZM12.4186 33.2512L12.4185 30.8762L12.4185 30.8762L12.4186 33.2512ZM6.19197 31.1082C6.03773 30.954 5.83079 30.8762 5.63172 30.8764L5.63449 35.6264C4.62438 35.627 3.60626 35.24 2.83321 34.467L6.19197 31.1082ZM6.42383 31.6726C6.42501 31.4723 6.34735 31.2636 6.19197 31.1082L2.83321 34.467C2.05472 33.6885 1.66791 32.6616 1.67391 31.6446L6.42383 31.6726ZM6.42403 24.8819L6.42387 31.6587L1.67387 31.6586L1.67403 24.8817L6.42403 24.8819ZM5.63234 25.6735C6.06957 25.6735 6.42402 25.3191 6.42403 24.8819L1.67403 24.8817C1.67408 22.6956 3.44632 20.9235 5.63245 20.9235L5.63234 25.6735ZM4.84069 24.8818C4.84068 25.319 5.19512 25.6735 5.63234 25.6735L5.63245 20.9235C7.81858 20.9236 9.59074 22.6958 9.59069 24.8819L4.84069 24.8818ZM4.84063 27.8454L4.84069 24.8818L9.59069 24.8819L9.59063 27.8455L4.84063 27.8454ZM14.3356 24.0842L8.895 29.5248L5.53625 26.166L10.9768 20.7255L14.3356 24.0842ZM13.216 24.0842C13.5252 24.3934 14.0264 24.3934 14.3356 24.0842L10.9768 20.7255C12.5226 19.1796 15.0289 19.1796 16.5748 20.7255L13.216 24.0842ZM13.216 22.9646C12.9068 23.2738 12.9068 23.775 13.216 24.0842L16.5748 20.7255C18.1206 22.2713 18.1206 24.7776 16.5748 26.3234L13.216 22.9646ZM7.7754 28.4052L13.216 22.9646L16.5748 26.3234L11.1342 31.764L7.7754 28.4052ZM12.4186 32.4595L9.45483 32.4596L9.45472 27.7096L12.4185 27.7095L12.4186 32.4595ZM11.6269 31.6679C11.6269 32.1051 11.9813 32.4595 12.4186 32.4595L12.4185 27.7095C14.6046 27.7095 16.3768 29.4816 16.3769 31.6678L11.6269 31.6679ZM12.4185 30.8762C11.9813 30.8762 11.6269 31.2307 11.6269 31.6679L16.3769 31.6678C16.3769 33.8539 14.6048 35.6261 12.4186 35.6262L12.4185 30.8762ZM5.63305 30.8764L12.4185 30.8762L12.4186 35.6262L5.63316 35.6264L5.63305 30.8764Z" fill="white" mask="url(#path-6-outside-3_304_8110)"/>
<mask id="path-8-outside-4_304_8110" maskUnits="userSpaceOnUse" x="13.9584" y="-3.93503" width="28.2843" height="28.2843" fill="black">
<rect fill="white" x="13.9584" y="-3.93503" width="28.2843" height="28.2843"/>
<path fill-rule="evenodd" clip-rule="evenodd" d="M32.3664 4.52366C32.7721 4.5233 33.1779 4.67789 33.4874 4.98741C33.7989 5.29895 33.9535 5.708 33.9511 6.11632L33.951 12.8932C33.951 13.7677 33.2421 14.4765 32.3676 14.4765C31.4932 14.4765 30.7843 13.7676 30.7843 12.8932L30.7844 9.92962L25.3438 15.3702C24.7255 15.9885 23.723 15.9885 23.1046 15.3702C22.4863 14.7519 22.4863 13.7494 23.1046 13.131L28.5452 7.69042L25.5815 7.69049C24.707 7.69052 23.9981 6.98165 23.9981 6.1072C23.9981 5.23275 24.707 4.52385 25.5814 4.52383L32.3664 4.52366Z"/>
</mask>
<path fill-rule="evenodd" clip-rule="evenodd" d="M32.3664 4.52366C32.7721 4.5233 33.1779 4.67789 33.4874 4.98741C33.7989 5.29895 33.9535 5.708 33.9511 6.11632L33.951 12.8932C33.951 13.7677 33.2421 14.4765 32.3676 14.4765C31.4932 14.4765 30.7843 13.7676 30.7843 12.8932L30.7844 9.92962L25.3438 15.3702C24.7255 15.9885 23.723 15.9885 23.1046 15.3702C22.4863 14.7519 22.4863 13.7494 23.1046 13.131L28.5452 7.69042L25.5815 7.69049C24.707 7.69052 23.9981 6.98165 23.9981 6.1072C23.9981 5.23275 24.707 4.52385 25.5814 4.52383L32.3664 4.52366Z" fill="#B4E7C3"/>
<path d="M32.3664 4.52366L32.3685 6.89866L32.3665 6.89866L32.3664 4.52366ZM33.9511 6.11632L31.5761 6.11626L31.5762 6.10242L33.9511 6.11632ZM33.951 12.8932L31.576 12.8932L31.576 12.8932L33.951 12.8932ZM32.3676 14.4765L32.3675 16.8515L32.3675 16.8515L32.3676 14.4765ZM30.7843 12.8932L33.1593 12.8932L33.1593 12.8932L30.7843 12.8932ZM30.7844 9.92962L29.105 8.25024L33.1595 4.19573L33.1594 9.92967L30.7844 9.92962ZM25.3438 15.3702L27.0232 17.0496L25.3438 15.3702ZM23.1046 13.131L24.784 14.8104L24.784 14.8104L23.1046 13.131ZM28.5452 7.69042L28.5452 5.31542L34.2791 5.31528L30.2246 9.3698L28.5452 7.69042ZM25.5815 7.69049L25.5815 10.0655L25.5815 7.69049ZM23.9981 6.1072L26.3731 6.10714L26.3731 6.10714L23.9981 6.1072ZM25.5814 4.52383L25.5815 6.89883L25.5815 6.89883L25.5814 4.52383ZM31.808 6.66679C31.9623 6.8211 32.1694 6.89884 32.3685 6.89866L32.3643 2.14866C33.3748 2.14777 34.3934 2.53468 35.1668 3.30803L31.808 6.66679ZM31.5762 6.10242C31.575 6.30274 31.6527 6.51142 31.808 6.66679L35.1668 3.30803C35.9452 4.08647 36.332 5.11327 36.3261 6.13021L31.5762 6.10242ZM31.576 12.8932L31.5761 6.11626L36.3261 6.11637L36.326 12.8933L31.576 12.8932ZM32.3677 12.1015C31.9304 12.1015 31.576 12.4559 31.576 12.8932L36.326 12.8933C36.3259 15.0794 34.5537 16.8516 32.3675 16.8515L32.3677 12.1015ZM33.1593 12.8932C33.1593 12.456 32.8049 12.1015 32.3677 12.1015L32.3675 16.8515C30.1814 16.8515 28.4093 15.0792 28.4093 12.8931L33.1593 12.8932ZM33.1594 9.92967L33.1593 12.8932L28.4093 12.8931L28.4094 9.92956L33.1594 9.92967ZM23.6644 13.6908L29.105 8.25024L32.4638 11.609L27.0232 17.0496L23.6644 13.6908ZM24.784 13.6908C24.4748 13.3816 23.9736 13.3816 23.6644 13.6908L27.0232 17.0496C25.4774 18.5954 22.9711 18.5954 21.4252 17.0496L24.784 13.6908ZM24.784 14.8104C25.0932 14.5012 25.0932 14 24.784 13.6908L21.4252 17.0496C19.8794 15.5037 19.8794 12.9975 21.4252 11.4516L24.784 14.8104ZM30.2246 9.3698L24.784 14.8104L21.4252 11.4516L26.8658 6.01104L30.2246 9.3698ZM25.5814 5.31549L28.5452 5.31542L28.5453 10.0654L25.5815 10.0655L25.5814 5.31549ZM26.3731 6.10714C26.3731 5.66992 26.0187 5.31548 25.5814 5.31549L25.5815 10.0655C23.3954 10.0655 21.6232 8.29339 21.6231 6.10726L26.3731 6.10714ZM25.5815 6.89883C26.0187 6.89882 26.3731 6.54437 26.3731 6.10714L21.6231 6.10726C21.6231 3.92113 23.3952 2.14888 25.5814 2.14883L25.5815 6.89883ZM32.3665 6.89866L25.5815 6.89883L25.5814 2.14883L32.3664 2.14866L32.3665 6.89866Z" fill="white" mask="url(#path-8-outside-4_304_8110)"/>
</g>
<defs>
<clipPath id="clip0_304_8110">
<rect width="38" height="38" fill="white"/>
</clipPath>
</defs>
</svg>
