<svg width="153" height="32" viewBox="0 0 153 32" fill="none" xmlns="http://www.w3.org/2000/svg">
<path d="M26.3946 22C24.3198 25.5868 20.4417 28 16 28C9.37258 28 4 22.6274 4 16C4 9.37258 9.37258 4 16 4C22.6274 4 28 9.37258 28 16H32C32 7.16344 24.8366 0 16 0C7.16344 0 0 7.16344 0 16C0 24.8366 7.16344 32 16 32C22.7148 32 28.4634 27.8637 30.837 22H26.3946Z" fill="#043B56"/>
<path d="M42.7221 21.1034C39.1267 17.0932 32.0742 19.444 28.7554 19.7206C23.7772 19.9971 21.1498 18.6143 19.3521 17.9229C20.3189 19.4623 22.8092 22.5751 26.9577 23.316C30.8296 24.0074 36.9141 20.5503 42.7221 21.1034Z" fill="#3AB75D"/>
<path d="M17.2778 13.4978C20.0435 14.7424 20.8732 15.4338 25.0217 15.4338C27.7909 15.4338 34.1485 13.7744 36.9141 17.0932C29.9999 16.4018 29.5851 17.9229 25.4366 17.9229C20.3201 17.7846 18.5224 15.0189 17.2778 13.4978Z" fill="#3AB75D"/>
<path d="M51.5521 17.996H48.7921V24.5H46.3201V7.7H52.2001C53.5601 7.7 54.6801 7.956 55.5601 8.468C56.4401 8.964 57.0801 9.604 57.4801 10.388C57.8801 11.172 58.0801 12.004 58.0801 12.884C58.0801 14.036 57.7521 15.068 57.0961 15.98C56.4401 16.892 55.4321 17.5 54.0721 17.804L58.2961 24.5H55.6081L51.5521 17.996ZM48.7921 15.908H51.8641C52.9361 15.908 53.8401 15.684 54.5761 15.236C55.3121 14.772 55.6801 13.988 55.6801 12.884C55.6801 11.796 55.3121 11.028 54.5761 10.58C53.8401 10.132 52.9361 9.908 51.8641 9.908H48.7921V15.908ZM66.3228 24.668C65.0108 24.668 63.9068 24.356 63.0108 23.732C62.1148 23.108 61.4508 22.3 61.0188 21.308C60.5868 20.3 60.3708 19.228 60.3708 18.092C60.3708 16.956 60.5868 15.892 61.0188 14.9C61.4508 13.892 62.1148 13.076 63.0108 12.452C63.9228 11.828 65.0348 11.516 66.3468 11.516C68.0748 11.516 69.4508 12.084 70.4748 13.22C71.4988 14.34 72.0108 15.972 72.0108 18.116V18.812H62.7948V18.98C62.7948 19.62 62.9388 20.22 63.2268 20.78C63.5148 21.34 63.9228 21.796 64.4508 22.148C64.9788 22.484 65.5868 22.652 66.2747 22.652C67.0268 22.652 67.6748 22.468 68.2188 22.1C68.7628 21.716 69.1548 21.204 69.3948 20.564H71.8428C71.5228 21.748 70.8908 22.732 69.9468 23.516C69.0028 24.284 67.7948 24.668 66.3228 24.668ZM69.5868 17.108C69.5228 15.812 69.1948 14.876 68.6028 14.3C68.0268 13.708 67.2588 13.412 66.2988 13.412C65.2748 13.412 64.4508 13.748 63.8268 14.42C63.2188 15.092 62.8988 15.988 62.8668 17.108H69.5868ZM79.4761 24.668C78.3881 24.668 77.4521 24.388 76.6681 23.828C75.8841 23.268 75.2841 22.492 74.8681 21.5C74.4681 20.508 74.2681 19.38 74.2681 18.116C74.2681 16.836 74.4681 15.7 74.8681 14.708C75.2841 13.716 75.8841 12.94 76.6681 12.38C77.4681 11.804 78.4201 11.516 79.5241 11.516C80.6281 11.516 81.5081 11.772 82.1641 12.284C82.8201 12.796 83.3161 13.388 83.6521 14.06H83.8201V6.5H86.3401V24.5H83.8201V22.052H83.6521C83.3001 22.756 82.7881 23.372 82.1161 23.9C81.4441 24.412 80.5641 24.668 79.4761 24.668ZM80.2921 22.604C81.4281 22.604 82.2921 22.172 82.8841 21.308C83.4921 20.444 83.7961 19.38 83.7961 18.116C83.7961 16.852 83.4921 15.788 82.8841 14.924C82.2921 14.06 81.4281 13.628 80.2921 13.628C79.1241 13.628 78.2521 14.06 77.6761 14.924C77.1001 15.772 76.8121 16.828 76.8121 18.092C76.8121 19.372 77.1001 20.444 77.6761 21.308C78.2681 22.172 79.1401 22.604 80.2921 22.604ZM94.0726 24.668C93.0326 24.668 92.1366 24.468 91.3846 24.068C90.6326 23.668 90.0566 23.148 89.6566 22.508C89.2566 21.852 89.0566 21.172 89.0566 20.468V20.348H91.5046V20.444C91.5046 21.02 91.7366 21.54 92.2006 22.004C92.6646 22.452 93.3126 22.676 94.1446 22.676C94.8326 22.676 95.4006 22.508 95.8486 22.172C96.2966 21.836 96.5206 21.38 96.5206 20.804C96.5206 20.308 96.3446 19.924 95.9926 19.652C95.6406 19.364 95.1926 19.172 94.6486 19.076L93.0646 18.836C92.0406 18.676 91.1686 18.316 90.4486 17.756C89.7286 17.18 89.3686 16.348 89.3686 15.26C89.3686 14.076 89.7926 13.156 90.6406 12.5C91.4886 11.844 92.5846 11.516 93.9286 11.516C94.9046 11.516 95.7526 11.7 96.4726 12.068C97.1926 12.42 97.7366 12.892 98.1046 13.484C98.4726 14.076 98.6566 14.716 98.6566 15.404V15.5H96.2086V15.452C96.2086 14.972 96.0166 14.508 95.6326 14.06C95.2486 13.612 94.6566 13.388 93.8566 13.388C93.1846 13.388 92.6406 13.556 92.2246 13.892C91.8086 14.228 91.6006 14.668 91.6006 15.212C91.6006 15.676 91.7766 16.052 92.1286 16.34C92.4806 16.628 92.9206 16.812 93.4486 16.892L95.1766 17.204C96.2326 17.396 97.1126 17.772 97.8166 18.332C98.5366 18.892 98.8966 19.708 98.8966 20.78C98.8966 21.548 98.6886 22.228 98.2726 22.82C97.8566 23.412 97.2806 23.868 96.5446 24.188C95.8086 24.508 94.9846 24.668 94.0726 24.668ZM105.355 13.82V20.588C105.355 21.18 105.379 21.612 105.427 21.884C105.491 22.156 105.643 22.372 105.883 22.532C106.139 22.692 106.555 22.772 107.131 22.772C107.531 22.772 107.923 22.724 108.307 22.628V24.38C108.195 24.428 107.931 24.476 107.515 24.524C107.099 24.572 106.683 24.596 106.267 24.596C105.259 24.596 104.507 24.452 104.011 24.164C103.515 23.86 103.195 23.476 103.051 23.012C102.923 22.532 102.859 21.908 102.859 21.14L102.883 13.82H100.603V11.852H102.883V7.7H105.355V11.852H108.307V13.82H105.355ZM116.62 24.668C115.324 24.668 114.228 24.364 113.332 23.756C112.436 23.148 111.764 22.348 111.316 21.356C110.884 20.348 110.668 19.268 110.668 18.116C110.668 16.948 110.884 15.868 111.316 14.876C111.764 13.868 112.436 13.06 113.332 12.452C114.228 11.828 115.324 11.516 116.62 11.516C117.916 11.516 119.012 11.828 119.908 12.452C120.804 13.06 121.476 13.868 121.924 14.876C122.372 15.868 122.596 16.94 122.596 18.092C122.596 19.244 122.372 20.324 121.924 21.332C121.476 22.324 120.804 23.132 119.908 23.756C119.012 24.364 117.916 24.668 116.62 24.668ZM116.62 22.604C117.724 22.604 118.58 22.172 119.188 21.308C119.812 20.444 120.124 19.364 120.124 18.068C120.124 16.772 119.812 15.7 119.188 14.852C118.58 14.004 117.724 13.58 116.62 13.58C115.532 13.58 114.676 14.012 114.052 14.876C113.428 15.724 113.116 16.788 113.116 18.068C113.116 19.364 113.42 20.444 114.028 21.308C114.652 22.172 115.516 22.604 116.62 22.604ZM125.375 11.852H127.871V14.012H128.063C128.367 13.308 128.863 12.716 129.551 12.236C130.239 11.756 131.087 11.516 132.095 11.516C133.183 11.516 134.079 11.78 134.783 12.308C135.487 12.82 135.999 13.484 136.319 14.3C136.639 15.1 136.799 15.956 136.799 16.868V24.5H134.327V17.228C134.327 16.076 134.031 15.196 133.439 14.588C132.863 13.98 132.095 13.676 131.135 13.676C130.127 13.676 129.327 14.004 128.735 14.66C128.159 15.316 127.871 16.172 127.871 17.228V24.5H125.375V11.852ZM145.495 24.668C144.183 24.668 143.079 24.356 142.183 23.732C141.287 23.108 140.623 22.3 140.191 21.308C139.759 20.3 139.543 19.228 139.543 18.092C139.543 16.956 139.759 15.892 140.191 14.9C140.623 13.892 141.287 13.076 142.183 12.452C143.095 11.828 144.207 11.516 145.519 11.516C147.247 11.516 148.623 12.084 149.647 13.22C150.671 14.34 151.183 15.972 151.183 18.116V18.812H141.967V18.98C141.967 19.62 142.111 20.22 142.399 20.78C142.687 21.34 143.095 21.796 143.623 22.148C144.151 22.484 144.759 22.652 145.447 22.652C146.199 22.652 146.847 22.468 147.391 22.1C147.935 21.716 148.327 21.204 148.567 20.564H151.015C150.695 21.748 150.063 22.732 149.119 23.516C148.175 24.284 146.967 24.668 145.495 24.668ZM148.759 17.108C148.695 15.812 148.367 14.876 147.775 14.3C147.199 13.708 146.431 13.412 145.471 13.412C144.447 13.412 143.623 13.748 142.999 14.42C142.391 15.092 142.071 15.988 142.039 17.108H148.759Z" fill="#043B56"/>
</svg>
